<?xml version="1.0" encoding="utf-8"?>
<!-- Generator: Adobe Illustrator 24.0.1, SVG Export Plug-In . SVG Version: 6.00 Build 0)  -->
<svg version="1.1" id="Layer_1" xmlns="http://www.w3.org/2000/svg" xmlns:xlink="http://www.w3.org/1999/xlink" x="0px" y="0px"
	 viewBox="0 0 1000 400" style="enable-background:new 0 0 1000 400;" xml:space="preserve">
<style type="text/css">
	.st0{fill:#002F6C;}
	.st1{fill:#0085CA;}
</style>
<g>
	<g>
		<path class="st0" d="M381.14,141.84v23.11c0,7.76,3.23,11.35,8.11,11.35c5.23,0,8.35-3.59,8.35-11.35v-23.11h7.23v22.64
			c0,12.23-6.29,17.64-15.82,17.64c-9.17,0-15.11-5.12-15.11-17.58v-22.7H381.14z"/>
		<path class="st0" d="M412.83,161.37c0-3.29-0.12-6.06-0.24-8.53h6.29l0.35,4.29h0.18c1.29-2.23,4.41-4.94,9.17-4.94
			c5,0,10.17,3.23,10.17,12.29v16.99h-7.23V165.3c0-4.12-1.53-7.23-5.47-7.23c-2.88,0-4.88,2.06-5.64,4.23
			c-0.23,0.59-0.35,1.47-0.35,2.29v16.88h-7.23V161.37z"/>
		<path class="st0" d="M454.16,144.84c0,2.12-1.59,3.88-4.12,3.88c-2.41,0-4-1.76-4-3.88c0-2.23,1.65-3.94,4.06-3.94
			C452.57,140.9,454.1,142.61,454.16,144.84z M446.46,181.48v-28.64h7.23v28.64H446.46z"/>
		<path class="st0" d="M466.1,152.84l4.65,14.52c0.82,2.53,1.41,4.82,1.94,7.17h0.18c0.53-2.35,1.18-4.59,1.94-7.17l4.59-14.52h7.58
			l-10.94,28.64h-7.12l-10.64-28.64H466.1z"/>
		<path class="st0" d="M495.73,169.19c0.18,5.17,4.18,7.41,8.82,7.41c3.35,0,5.7-0.53,7.94-1.29l1.06,4.94
			c-2.47,1.06-5.88,1.82-10,1.82c-9.29,0-14.76-5.7-14.76-14.46c0-7.94,4.82-15.41,13.99-15.41c9.29,0,12.35,7.64,12.35,13.94
			c0,1.35-0.12,2.41-0.24,3.06H495.73z M508.31,164.13c0.06-2.65-1.12-7-5.94-7c-4.47,0-6.35,4.06-6.64,7H508.31z"/>
		<path class="st0" d="M520.95,162.07c0-3.88-0.06-6.7-0.23-9.23h6.23l0.29,5.41h0.18c1.41-4,4.76-6.06,7.88-6.06
			c0.71,0,1.12,0.06,1.71,0.18v6.76c-0.65-0.12-1.29-0.18-2.18-0.18c-3.41,0-5.82,2.18-6.47,5.47c-0.12,0.65-0.18,1.41-0.18,2.18
			v14.88h-7.23V162.07z"/>
		<path class="st0" d="M541.59,174.77c1.59,1,4.7,2.12,7.29,2.12c3.18,0,4.59-1.35,4.59-3.23c0-1.94-1.18-2.88-4.7-4.17
			c-5.59-1.88-7.88-4.94-7.88-8.35c0-5.06,4.17-8.94,10.82-8.94c3.18,0,5.94,0.76,7.64,1.7l-1.47,5.06
			c-1.18-0.71-3.53-1.65-6.06-1.65c-2.59,0-4,1.29-4,3.06c0,1.82,1.35,2.65,5,4c5.23,1.82,7.58,4.47,7.64,8.7c0,5.23-4.06,9-11.64,9
			c-3.47,0-6.58-0.82-8.7-2L541.59,174.77z"/>
		<path class="st0" d="M574.1,144.84c0,2.12-1.59,3.88-4.12,3.88c-2.41,0-4-1.76-4-3.88c0-2.23,1.65-3.94,4.06-3.94
			C572.52,140.9,574.05,142.61,574.1,144.84z M566.4,181.48v-28.64h7.23v28.64H566.4z"/>
		<path class="st0" d="M589.74,145.49v7.35h6.88v5.41h-6.88v12.64c0,3.53,0.94,5.29,3.7,5.29c1.29,0,2-0.06,2.82-0.29l0.12,5.47
			c-1.06,0.41-3,0.76-5.23,0.76c-2.7,0-4.88-0.88-6.23-2.35c-1.59-1.65-2.29-4.29-2.29-8.06v-13.47h-4.06v-5.41h4.06v-5.35
			L589.74,145.49z"/>
		<path class="st0" d="M607.09,152.84l5.12,15.35c0.59,1.76,1.23,3.94,1.65,5.53h0.18c0.41-1.59,0.94-3.76,1.53-5.59l4.47-15.29h7.7
			l-7.17,19.52c-3.94,10.7-6.59,15.46-9.94,18.4c-2.88,2.47-5.82,3.41-7.58,3.65l-1.65-6.06c1.23-0.29,2.7-0.94,4.17-2
			c1.41-0.88,3-2.59,4-4.53c0.29-0.53,0.41-0.94,0.41-1.29c0-0.29-0.06-0.71-0.35-1.41l-10.52-26.28H607.09z"/>
		<path class="st0" d="M671.29,166.89c0,10.53-7.41,15.23-14.7,15.23c-8.06,0-14.35-5.53-14.35-14.76c0-9.41,6.17-15.17,14.82-15.17
			C665.59,152.19,671.29,158.19,671.29,166.89z M649.71,167.19c0,5.53,2.76,9.7,7.11,9.7c4.12,0,7-4,7-9.82c0-4.47-2-9.64-6.94-9.64
			C651.77,157.43,649.71,162.42,649.71,167.19z"/>
		<path class="st0" d="M678.05,181.48v-23.23h-3.88v-5.41h3.88v-1.23c0-3.7,1-7.41,3.47-9.76c2.12-2,4.94-2.76,7.47-2.76
			c1.94,0,3.47,0.35,4.59,0.71l-0.47,5.59c-0.82-0.29-1.76-0.53-3.12-0.53c-3.59,0-4.76,3-4.76,6.53v1.47h6.23v5.41h-6.17v23.23
			H678.05z"/>
		<path class="st0" d="M708.45,142.37c2.65-0.47,6.23-0.82,11.06-0.82c5.29,0,9.11,1.12,11.64,3.23c2.35,1.94,3.88,5.06,3.88,8.76
			c0,3.76-1.18,6.82-3.35,8.94c-2.94,2.88-7.41,4.29-12.53,4.29c-1.35,0-2.53-0.06-3.53-0.29v14.99h-7.17V142.37z M715.62,160.78
			c0.94,0.29,2.06,0.35,3.53,0.35c5.41,0,8.7-2.7,8.7-7.29c0-4.41-3.06-6.7-8.05-6.7c-2,0-3.41,0.18-4.18,0.35V160.78z"/>
		<path class="st0" d="M766.78,166.89c0,10.53-7.41,15.23-14.7,15.23c-8.06,0-14.35-5.53-14.35-14.76c0-9.41,6.17-15.17,14.82-15.17
			C761.07,152.19,766.78,158.19,766.78,166.89z M745.2,167.19c0,5.53,2.76,9.7,7.11,9.7c4.12,0,7-4,7-9.82c0-4.47-2-9.64-6.94-9.64
			C747.26,157.43,745.2,162.42,745.2,167.19z"/>
		<path class="st0" d="M772.71,162.07c0-3.88-0.06-6.7-0.23-9.23h6.23l0.29,5.41h0.18c1.41-4,4.76-6.06,7.88-6.06
			c0.71,0,1.12,0.06,1.71,0.18v6.76c-0.65-0.12-1.29-0.18-2.18-0.18c-3.41,0-5.82,2.18-6.47,5.47c-0.12,0.65-0.18,1.41-0.18,2.18
			v14.88h-7.23V162.07z"/>
		<path class="st0" d="M803.29,145.49v7.35h6.88v5.41h-6.88v12.64c0,3.53,0.94,5.29,3.7,5.29c1.29,0,2-0.06,2.82-0.29l0.12,5.47
			c-1.06,0.41-3,0.76-5.23,0.76c-2.7,0-4.88-0.88-6.23-2.35c-1.59-1.65-2.29-4.29-2.29-8.06v-13.47h-4.06v-5.41h4.06v-5.35
			L803.29,145.49z"/>
		<path class="st0" d="M842.51,166.89c0,10.53-7.41,15.23-14.7,15.23c-8.06,0-14.35-5.53-14.35-14.76c0-9.41,6.17-15.17,14.82-15.17
			C836.8,152.19,842.51,158.19,842.51,166.89z M820.93,167.19c0,5.53,2.76,9.7,7.11,9.7c4.12,0,7-4,7-9.82c0-4.47-2-9.64-6.94-9.64
			C822.98,157.43,820.93,162.42,820.93,167.19z"/>
		<path class="st0" d="M373.96,212.4h22.93v5.94h-15.7v10.94h14.58v5.88H381.2v16.88h-7.23V212.4z"/>
		<path class="st0" d="M423.35,245.15c0,2.59,0.12,5.11,0.47,6.88h-6.53l-0.53-3.17h-0.18c-1.71,2.23-4.7,3.82-8.47,3.82
			c-5.76,0-9-4.18-9-8.53c0-7.17,6.41-10.88,16.99-10.82v-0.47c0-1.88-0.76-5-5.82-5c-2.82,0-5.76,0.88-7.7,2.12l-1.41-4.7
			c2.12-1.29,5.82-2.53,10.35-2.53c9.17,0,11.82,5.82,11.82,12.11V245.15z M416.3,238.04c-5.12-0.06-10,1-10,5.35
			c0,2.82,1.82,4.12,4.12,4.12c2.94,0,5-1.88,5.7-3.94c0.18-0.53,0.18-1.06,0.18-1.59V238.04z"/>
		<path class="st0" d="M452.05,251.15c-1.53,0.71-4.53,1.47-8.11,1.47c-8.94,0-14.76-5.76-14.76-14.64
			c0-8.58,5.88-15.23,15.93-15.23c2.65,0,5.35,0.59,7,1.29l-1.29,5.47c-1.18-0.59-2.88-1.12-5.47-1.12c-5.53,0-8.82,4.06-8.76,9.29
			c0,5.88,3.82,9.23,8.76,9.23c2.47,0,4.29-0.53,5.7-1.12L452.05,251.15z"/>
		<path class="st0" d="M483.03,243.45c0,3.41,0.12,6.23,0.24,8.58h-6.29l-0.35-4.29h-0.18c-1.23,2-4.06,4.94-9.23,4.94
			s-9.94-3.12-9.94-12.47v-16.82h7.23v15.58c0,4.76,1.53,7.82,5.35,7.82c2.94,0,4.82-2,5.53-3.88c0.29-0.59,0.41-1.41,0.41-2.23
			v-17.29h7.23V243.45z"/>
		<path class="st0" d="M490.85,210.28h7.23v41.75h-7.23V210.28z"/>
		<path class="st0" d="M514.25,216.04v7.35h6.88v5.41h-6.88v12.64c0,3.53,0.94,5.29,3.7,5.29c1.29,0,2-0.06,2.82-0.29l0.12,5.47
			c-1.06,0.41-3,0.76-5.23,0.76c-2.7,0-4.88-0.88-6.23-2.35c-1.59-1.65-2.29-4.29-2.29-8.06v-13.46h-4.06v-5.41h4.06v-5.35
			L514.25,216.04z"/>
		<path class="st0" d="M531.59,223.39l5.12,15.35c0.59,1.76,1.23,3.94,1.65,5.53h0.18c0.41-1.59,0.94-3.76,1.53-5.59l4.47-15.29h7.7
			l-7.17,19.52c-3.94,10.7-6.59,15.46-9.94,18.4c-2.88,2.47-5.82,3.41-7.58,3.65l-1.65-6.06c1.23-0.3,2.7-0.94,4.17-2
			c1.41-0.88,3-2.59,4-4.53c0.29-0.53,0.41-0.94,0.41-1.29c0-0.29-0.06-0.71-0.35-1.41l-10.52-26.28H531.59z"/>
		<path class="st0" d="M595.8,237.45c0,10.53-7.41,15.23-14.7,15.23c-8.06,0-14.35-5.53-14.35-14.76c0-9.41,6.17-15.17,14.82-15.17
			C590.1,222.75,595.8,228.75,595.8,237.45z M574.22,237.74c0,5.53,2.76,9.7,7.11,9.7c4.12,0,7-4,7-9.82c0-4.47-2-9.64-6.94-9.64
			C576.28,227.98,574.22,232.98,574.22,237.74z"/>
		<path class="st0" d="M602.56,252.03v-23.22h-3.88v-5.41h3.88v-1.23c0-3.7,1-7.41,3.47-9.76c2.12-2,4.94-2.76,7.47-2.76
			c1.94,0,3.47,0.35,4.59,0.71l-0.47,5.59c-0.82-0.29-1.76-0.53-3.12-0.53c-3.59,0-4.76,3-4.76,6.53v1.47h6.23v5.41h-6.17v23.22
			H602.56z"/>
		<path class="st0" d="M655.12,234.45h-14.94v11.64h16.7v5.94h-23.93V212.4H656v5.94h-15.82v10.23h14.94V234.45z"/>
		<path class="st0" d="M662.94,231.92c0-3.29-0.12-6.06-0.23-8.53H669l0.35,4.29h0.18c1.29-2.23,4.41-4.94,9.17-4.94
			c5,0,10.17,3.23,10.17,12.29v16.99h-7.23v-16.17c0-4.12-1.53-7.23-5.47-7.23c-2.88,0-4.88,2.06-5.64,4.23
			c-0.24,0.59-0.35,1.47-0.35,2.29v16.88h-7.23V231.92z"/>
		<path class="st0" d="M722.5,247.86c0,6-1.23,10.29-4.23,12.99c-2.94,2.65-7.11,3.47-11.05,3.47c-3.64,0-7.53-0.82-10-2.29
			l1.59-5.47c1.82,1.06,4.88,2.18,8.35,2.18c4.7,0,8.23-2.47,8.23-8.64v-2.47h-0.12c-1.65,2.53-4.53,4.23-8.35,4.23
			c-7.11,0-12.17-5.88-12.17-14c0-9.41,6.12-15.11,12.99-15.11c4.41,0,6.94,2.12,8.29,4.47h0.12l0.29-3.82h6.29
			c-0.12,1.94-0.24,4.29-0.24,8.23V247.86z M715.27,234.86c0-0.71-0.06-1.35-0.24-1.94c-0.76-2.65-2.82-4.65-5.88-4.65
			c-4.06,0-7.06,3.53-7.06,9.35c0,4.88,2.47,8.82,7,8.82c2.7,0,5.06-1.76,5.88-4.41c0.24-0.71,0.29-1.71,0.29-2.53V234.86z"/>
		<path class="st0" d="M737.73,215.4c0,2.12-1.59,3.88-4.12,3.88c-2.41,0-4-1.76-4-3.88c0-2.23,1.65-3.94,4.06-3.94
			C736.14,211.46,737.67,213.16,737.73,215.4z M730.03,252.03v-28.64h7.23v28.64H730.03z"/>
		<path class="st0" d="M745.08,231.92c0-3.29-0.12-6.06-0.23-8.53h6.29l0.35,4.29h0.18c1.29-2.23,4.41-4.94,9.17-4.94
			c5,0,10.17,3.23,10.17,12.29v16.99h-7.23v-16.17c0-4.12-1.53-7.23-5.47-7.23c-2.88,0-4.88,2.06-5.64,4.23
			c-0.24,0.59-0.35,1.47-0.35,2.29v16.88h-7.23V231.92z"/>
		<path class="st0" d="M783.83,239.74c0.18,5.17,4.18,7.41,8.82,7.41c3.35,0,5.7-0.53,7.94-1.29l1.06,4.94
			c-2.47,1.06-5.88,1.82-10,1.82c-9.29,0-14.76-5.7-14.76-14.46c0-7.94,4.82-15.4,13.99-15.4c9.29,0,12.35,7.64,12.35,13.93
			c0,1.35-0.12,2.41-0.24,3.06H783.83z M796.41,234.69c0.06-2.65-1.12-7-5.94-7c-4.47,0-6.35,4.06-6.64,7H796.41z"/>
		<path class="st0" d="M814.16,239.74c0.18,5.17,4.17,7.41,8.82,7.41c3.35,0,5.7-0.53,7.94-1.29l1.06,4.94
			c-2.47,1.06-5.88,1.82-10,1.82c-9.29,0-14.76-5.7-14.76-14.46c0-7.94,4.82-15.4,13.99-15.4c9.29,0,12.35,7.64,12.35,13.93
			c0,1.35-0.12,2.41-0.24,3.06H814.16z M826.75,234.69c0.06-2.65-1.12-7-5.94-7c-4.47,0-6.35,4.06-6.64,7H826.75z"/>
		<path class="st0" d="M839.39,232.63c0-3.88-0.06-6.7-0.23-9.23h6.23l0.29,5.41h0.18c1.41-4,4.76-6.06,7.88-6.06
			c0.71,0,1.12,0.06,1.71,0.18v6.76c-0.65-0.12-1.29-0.18-2.18-0.18c-3.41,0-5.82,2.18-6.47,5.47c-0.12,0.65-0.18,1.41-0.18,2.18
			v14.88h-7.23V232.63z"/>
		<path class="st0" d="M868.02,215.4c0,2.12-1.59,3.88-4.12,3.88c-2.41,0-4-1.76-4-3.88c0-2.23,1.65-3.94,4.06-3.94
			C866.43,211.46,867.96,213.16,868.02,215.4z M860.32,252.03v-28.64h7.23v28.64H860.32z"/>
		<path class="st0" d="M875.37,231.92c0-3.29-0.12-6.06-0.23-8.53h6.29l0.35,4.29h0.18c1.29-2.23,4.41-4.94,9.17-4.94
			c5,0,10.17,3.23,10.17,12.29v16.99h-7.23v-16.17c0-4.12-1.53-7.23-5.47-7.23c-2.88,0-4.88,2.06-5.64,4.23
			c-0.24,0.59-0.35,1.47-0.35,2.29v16.88h-7.23V231.92z"/>
		<path class="st0" d="M934.93,247.86c0,6-1.23,10.29-4.23,12.99c-2.94,2.65-7.11,3.47-11.05,3.47c-3.64,0-7.53-0.82-10-2.29
			l1.59-5.47c1.82,1.06,4.88,2.18,8.35,2.18c4.7,0,8.23-2.47,8.23-8.64v-2.47h-0.12c-1.65,2.53-4.53,4.23-8.35,4.23
			c-7.11,0-12.17-5.88-12.17-14c0-9.41,6.12-15.11,12.99-15.11c4.41,0,6.94,2.12,8.29,4.47h0.12l0.29-3.82h6.29
			c-0.12,1.94-0.24,4.29-0.24,8.23V247.86z M927.7,234.86c0-0.71-0.06-1.35-0.24-1.94c-0.76-2.65-2.82-4.65-5.88-4.65
			c-4.06,0-7.06,3.53-7.06,9.35c0,4.88,2.47,8.82,7,8.82c2.7,0,5.06-1.76,5.88-4.41c0.24-0.71,0.29-1.71,0.29-2.53V234.86z"/>
	</g>
	<g>
		<path class="st1" d="M99.05,189.21c-9.38,0-16.64,2.23-16.64,9.02c0,4.56,3.05,6.79,7.03,6.79c4.34,0,8.09-2.93,9.26-6.56
			c0.23-0.94,0.35-1.99,0.35-3.05V189.21L99.05,189.21z M116.27,202.44c0,5.4,0.24,10.67,0.94,13.83h-16.05l-1.05-5.75h-0.35
			c-3.75,4.57-9.6,7.03-16.41,7.03c-11.6,0-18.51-8.44-18.51-17.57c0-14.88,13.36-21.91,33.62-21.91v-0.7
			c0-3.05-1.63-7.38-10.43-7.38c-5.86,0-12.07,1.99-15.82,4.21l-3.28-11.37c3.98-2.22,11.84-5.16,22.27-5.16
			c19.1,0,25.07,11.25,25.07,24.73V202.44L116.27,202.44z"/>
		<path class="st1" d="M170.91,214.86c-3.16,1.53-9.14,2.69-15.94,2.69c-18.51,0-30.35-11.36-30.35-29.41
			c0-16.76,11.48-30.47,32.81-30.47c4.69,0,9.84,0.82,13.59,2.23l-2.8,13.24c-2.12-0.94-5.28-1.76-9.96-1.76
			c-9.38,0-15.47,6.68-15.35,16.06c0,10.54,7.03,16.17,15.7,16.17c4.21,0,7.5-0.71,10.19-1.88L170.91,214.86L170.91,214.86z"/>
		<path class="st1" d="M183.02,177.25c0-7.15-0.24-13.12-0.46-18.28h15.11l0.7,7.85h0.35c2.46-3.75,7.62-9.14,17.34-9.14
			c7.5,0,13.24,3.87,15.71,9.85h0.23c2.22-3.05,4.69-5.39,7.5-7.03c3.16-1.76,6.68-2.82,10.9-2.82c11.02,0,19.33,7.73,19.33,24.85
			v33.74h-17.34v-31.05c0-8.32-2.69-13.13-8.44-13.13c-4.21,0-7.03,2.81-8.31,6.21c-0.35,1.29-0.59,3.04-0.59,4.45v33.52H217.7
			v-32.11c0-7.15-2.58-12.07-8.32-12.07c-4.56,0-7.26,3.52-8.32,6.32c-0.58,1.4-0.7,3.06-0.7,4.57v33.28h-17.34V177.25
			L183.02,177.25z"/>
		<g>
			<path class="st1" d="M66.58,239.87c1.12,0.66,2.88,1.24,4.69,1.24c2.24,0,3.51-1.06,3.51-2.65c0-1.47-0.98-2.33-3.42-3.22
				c-3.22-1.15-5.26-2.85-5.26-5.64c0-3.19,2.65-5.58,6.87-5.58c2.1,0,3.62,0.46,4.63,0.98l-0.83,2.85
				c-0.72-0.37-2.07-0.92-3.88-0.92c-2.24,0-3.19,1.18-3.19,2.33c0,1.5,1.12,2.19,3.71,3.19c3.37,1.27,4.98,2.96,4.98,5.75
				c0,3.14-2.36,5.84-7.33,5.84c-2.07,0-4.2-0.58-5.26-1.24L66.58,239.87z"/>
			<path class="st1" d="M85.36,226.12v3.6h3.37v2.65h-3.37v6.19c0,1.72,0.46,2.59,1.81,2.59c0.63,0,0.98-0.03,1.38-0.14l0.06,2.67
				c-0.52,0.2-1.47,0.37-2.56,0.37c-1.32,0-2.39-0.43-3.05-1.15c-0.78-0.81-1.12-2.1-1.12-3.94v-6.59h-1.98v-2.65h1.98v-2.62
				L85.36,226.12z"/>
			<path class="st1" d="M103.94,239.52c0,1.67,0.06,3.05,0.11,4.2h-3.08l-0.17-2.1h-0.09c-0.6,0.98-1.98,2.42-4.52,2.42
				s-4.86-1.53-4.86-6.1v-8.23h3.54v7.62c0,2.33,0.75,3.83,2.62,3.83c1.44,0,2.36-0.98,2.7-1.9c0.14-0.29,0.2-0.69,0.2-1.09v-8.46
				h3.54V239.52z"/>
			<path class="st1" d="M120.68,223.3v16.48c0,1.44,0.06,2.99,0.12,3.94h-3.14l-0.17-2.22h-0.06c-0.83,1.55-2.53,2.53-4.54,2.53
				c-3.37,0-6.01-2.85-6.01-7.16c-0.03-4.69,2.91-7.48,6.27-7.48c1.93,0,3.31,0.78,3.94,1.81h0.06v-7.91H120.68z M117.14,235.55
				c0-0.29-0.03-0.66-0.09-0.95c-0.32-1.35-1.44-2.47-3.05-2.47c-2.27,0-3.54,2.01-3.54,4.6c0,2.59,1.27,4.46,3.51,4.46
				c1.44,0,2.7-0.98,3.05-2.5c0.09-0.32,0.12-0.66,0.12-1.04V235.55z"/>
			<path class="st1" d="M126.98,237.71c0.09,2.53,2.04,3.62,4.31,3.62c1.64,0,2.79-0.26,3.88-0.63l0.52,2.42
				c-1.21,0.52-2.88,0.89-4.89,0.89c-4.54,0-7.22-2.79-7.22-7.08c0-3.88,2.36-7.54,6.85-7.54c4.54,0,6.04,3.74,6.04,6.82
				c0,0.66-0.06,1.18-0.11,1.5H126.98z M133.14,235.23c0.03-1.29-0.55-3.42-2.9-3.42c-2.19,0-3.11,1.98-3.25,3.42H133.14z"/>
			<path class="st1" d="M139.32,233.88c0-1.61-0.06-2.96-0.11-4.17h3.08l0.17,2.1h0.09c0.63-1.09,2.16-2.42,4.49-2.42
				c2.44,0,4.98,1.58,4.98,6.01v8.31h-3.54v-7.91c0-2.01-0.75-3.54-2.68-3.54c-1.41,0-2.39,1.01-2.76,2.07
				c-0.11,0.29-0.17,0.72-0.17,1.12v8.25h-3.54V233.88z"/>
			<path class="st1" d="M159.68,226.12v3.6h3.37v2.65h-3.37v6.19c0,1.72,0.46,2.59,1.81,2.59c0.63,0,0.98-0.03,1.38-0.14l0.06,2.67
				c-0.52,0.2-1.47,0.37-2.56,0.37c-1.32,0-2.39-0.43-3.05-1.15c-0.78-0.81-1.12-2.1-1.12-3.94v-6.59h-1.98v-2.65h1.98v-2.62
				L159.68,226.12z"/>
			<path class="st1" d="M185.71,243.17c-0.83,0.4-2.68,0.86-5.03,0.86c-6.16,0-9.89-3.86-9.89-9.78c0-6.39,4.46-10.24,10.38-10.24
				c2.33,0,3.97,0.49,4.69,0.86l-0.75,2.82c-0.92-0.4-2.21-0.75-3.8-0.75c-3.94,0-6.79,2.47-6.79,7.13c0,4.29,2.47,6.99,6.76,6.99
				c1.41,0,2.91-0.29,3.85-0.69L185.71,243.17z"/>
			<path class="st1" d="M188.51,223.3h3.54v8.31h0.06c0.43-0.66,1.04-1.21,1.75-1.58c0.72-0.4,1.55-0.63,2.44-0.63
				c2.39,0,4.89,1.58,4.89,6.07v8.25h-3.54v-7.88c0-2.01-0.75-3.57-2.7-3.57c-1.38,0-2.36,0.92-2.76,1.99
				c-0.11,0.32-0.14,0.69-0.14,1.06v8.4h-3.54V223.3z"/>
			<path class="st1" d="M215.83,240.35c0,1.27,0.06,2.5,0.23,3.36h-3.19l-0.26-1.55h-0.09c-0.83,1.09-2.3,1.87-4.14,1.87
				c-2.82,0-4.4-2.04-4.4-4.17c0-3.51,3.14-5.32,8.31-5.29v-0.23c0-0.92-0.37-2.44-2.85-2.44c-1.38,0-2.82,0.43-3.77,1.03l-0.69-2.3
				c1.04-0.63,2.85-1.24,5.06-1.24c4.49,0,5.78,2.85,5.78,5.92V240.35z M212.38,236.87c-2.5-0.03-4.89,0.49-4.89,2.62
				c0,1.38,0.89,2.01,2.01,2.01c1.44,0,2.44-0.92,2.79-1.93c0.09-0.26,0.09-0.52,0.09-0.78V236.87z"/>
			<path class="st1" d="M219.57,234.37c0-1.84-0.06-3.34-0.11-4.66h3.11l0.17,2.16h0.06c1.04-1.58,2.67-2.47,4.8-2.47
				c3.22,0,5.9,2.76,5.9,7.13c0,5.06-3.19,7.51-6.39,7.51c-1.75,0-3.22-0.75-3.94-1.87h-0.06v7.25h-3.54V234.37z M223.11,237.85
				c0,0.35,0.03,0.66,0.09,0.98c0.37,1.44,1.61,2.47,3.14,2.47c2.24,0,3.57-1.87,3.57-4.63c0-2.47-1.21-4.49-3.48-4.49
				c-1.47,0-2.82,1.06-3.19,2.62c-0.06,0.29-0.11,0.6-0.11,0.89V237.85z"/>
			<path class="st1" d="M240.45,226.12v3.6h3.37v2.65h-3.37v6.19c0,1.72,0.46,2.59,1.81,2.59c0.63,0,0.98-0.03,1.38-0.14l0.06,2.67
				c-0.52,0.2-1.47,0.37-2.56,0.37c-1.32,0-2.39-0.43-3.05-1.15c-0.78-0.81-1.12-2.1-1.12-3.94v-6.59h-1.98v-2.65h1.98v-2.62
				L240.45,226.12z"/>
			<path class="st1" d="M248.82,237.71c0.09,2.53,2.04,3.62,4.31,3.62c1.64,0,2.79-0.26,3.88-0.63l0.52,2.42
				c-1.21,0.52-2.88,0.89-4.89,0.89c-4.54,0-7.22-2.79-7.22-7.08c0-3.88,2.36-7.54,6.85-7.54c4.54,0,6.04,3.74,6.04,6.82
				c0,0.66-0.06,1.18-0.11,1.5H248.82z M254.98,235.23c0.03-1.29-0.55-3.42-2.9-3.42c-2.19,0-3.11,1.98-3.25,3.42H254.98z"/>
			<path class="st1" d="M261.16,234.23c0-1.9-0.03-3.28-0.11-4.52h3.05l0.14,2.65h0.09c0.69-1.96,2.33-2.96,3.85-2.96
				c0.35,0,0.55,0.03,0.83,0.09v3.31c-0.32-0.06-0.63-0.09-1.06-0.09c-1.67,0-2.85,1.06-3.16,2.67c-0.06,0.32-0.09,0.69-0.09,1.06
				v7.28h-3.54V234.23z"/>
		</g>
	</g>
	<g>
		<polygon class="st0" points="295.37,258.21 353.58,200 294.2,140.62 264.75,140.62 325.36,201.23 268.38,258.21 		"/>
		<polygon class="st1" points="218.3,94.17 252.99,128.86 282.44,128.86 219.53,65.94 144.86,140.62 171.85,140.62 		"/>
		<polygon class="st1" points="256.62,269.97 220.76,305.83 173.13,258.21 143.68,258.21 219.53,334.06 283.61,269.97 		"/>
	</g>
</g>
</svg>
