<?xml version="1.0" encoding="utf-8"?>
<!-- Generator: Adobe Illustrator 24.0.1, SVG Export Plug-In . SVG Version: 6.00 Build 0)  -->
<svg version="1.1" id="Layer_1" xmlns="http://www.w3.org/2000/svg" xmlns:xlink="http://www.w3.org/1999/xlink" x="0px" y="0px"
	 viewBox="0 0 400 400" style="enable-background:new 0 0 400 400;" xml:space="preserve">
<style type="text/css">
	.st1{fill:#0085CA;}
</style>
<g>
	<g>
		<path class="st1" d="M99.05,189.21c-9.38,0-16.64,2.23-16.64,9.02c0,4.56,3.05,6.79,7.03,6.79c4.34,0,8.09-2.93,9.26-6.56
			c0.23-0.94,0.35-1.99,0.35-3.05V189.21L99.05,189.21z M116.27,202.44c0,5.4,0.24,10.67,0.94,13.83h-16.05l-1.05-5.75h-0.35
			c-3.75,4.57-9.6,7.03-16.41,7.03c-11.6,0-18.51-8.44-18.51-17.57c0-14.88,13.36-21.91,33.62-21.91v-0.7
			c0-3.05-1.63-7.38-10.43-7.38c-5.86,0-12.07,1.99-15.82,4.21l-3.28-11.37c3.98-2.22,11.84-5.16,22.27-5.16
			c19.1,0,25.07,11.25,25.07,24.73V202.44L116.27,202.44z"/>
		<path class="st1" d="M170.91,214.86c-3.16,1.53-9.14,2.69-15.94,2.69c-18.51,0-30.35-11.36-30.35-29.41
			c0-16.76,11.48-30.47,32.81-30.47c4.69,0,9.84,0.82,13.59,2.23l-2.8,13.24c-2.12-0.94-5.28-1.76-9.96-1.76
			c-9.38,0-15.47,6.68-15.35,16.06c0,10.54,7.03,16.17,15.7,16.17c4.21,0,7.5-0.71,10.19-1.88L170.91,214.86L170.91,214.86z"/>
		<path class="st1" d="M183.02,177.25c0-7.15-0.24-13.12-0.46-18.28h15.11l0.7,7.85h0.35c2.46-3.75,7.62-9.14,17.34-9.14
			c7.5,0,13.24,3.87,15.71,9.85h0.23c2.22-3.05,4.69-5.39,7.5-7.03c3.16-1.76,6.68-2.82,10.9-2.82c11.02,0,19.33,7.73,19.33,24.85
			v33.74h-17.34v-31.05c0-8.32-2.69-13.13-8.44-13.13c-4.21,0-7.03,2.81-8.31,6.21c-0.35,1.29-0.59,3.04-0.59,4.45v33.52H217.7
			v-32.11c0-7.15-2.58-12.07-8.32-12.07c-4.56,0-7.26,3.52-8.32,6.32c-0.58,1.4-0.7,3.06-0.7,4.57v33.28h-17.34V177.25
			L183.02,177.25z"/>
		<g>
			<path class="st1" d="M66.58,239.87c1.12,0.66,2.88,1.24,4.69,1.24c2.24,0,3.51-1.06,3.51-2.65c0-1.47-0.98-2.33-3.42-3.22
				c-3.22-1.15-5.26-2.85-5.26-5.64c0-3.19,2.65-5.58,6.87-5.58c2.1,0,3.62,0.46,4.63,0.98l-0.83,2.85
				c-0.72-0.37-2.07-0.92-3.88-0.92c-2.24,0-3.19,1.18-3.19,2.33c0,1.5,1.12,2.19,3.71,3.19c3.37,1.27,4.98,2.96,4.98,5.75
				c0,3.14-2.36,5.84-7.33,5.84c-2.07,0-4.2-0.58-5.26-1.24L66.58,239.87z"/>
			<path class="st1" d="M85.36,226.12v3.6h3.37v2.65h-3.37v6.19c0,1.72,0.46,2.59,1.81,2.59c0.63,0,0.98-0.03,1.38-0.14l0.06,2.67
				c-0.52,0.2-1.47,0.37-2.56,0.37c-1.32,0-2.39-0.43-3.05-1.15c-0.78-0.81-1.12-2.1-1.12-3.94v-6.59h-1.98v-2.65h1.98v-2.62
				L85.36,226.12z"/>
			<path class="st1" d="M103.94,239.52c0,1.67,0.06,3.05,0.11,4.2h-3.08l-0.17-2.1h-0.09c-0.6,0.98-1.98,2.42-4.52,2.42
				s-4.86-1.53-4.86-6.1v-8.23h3.54v7.62c0,2.33,0.75,3.83,2.62,3.83c1.44,0,2.36-0.98,2.7-1.9c0.14-0.29,0.2-0.69,0.2-1.09v-8.46
				h3.54V239.52z"/>
			<path class="st1" d="M120.68,223.3v16.48c0,1.44,0.06,2.99,0.12,3.94h-3.14l-0.17-2.22h-0.06c-0.83,1.55-2.53,2.53-4.54,2.53
				c-3.37,0-6.01-2.85-6.01-7.16c-0.03-4.69,2.91-7.48,6.27-7.48c1.93,0,3.31,0.78,3.94,1.81h0.06v-7.91H120.68z M117.14,235.55
				c0-0.29-0.03-0.66-0.09-0.95c-0.32-1.35-1.44-2.47-3.05-2.47c-2.27,0-3.54,2.01-3.54,4.6c0,2.59,1.27,4.46,3.51,4.46
				c1.44,0,2.7-0.98,3.05-2.5c0.09-0.32,0.12-0.66,0.12-1.04V235.55z"/>
			<path class="st1" d="M126.98,237.71c0.09,2.53,2.04,3.62,4.31,3.62c1.64,0,2.79-0.26,3.88-0.63l0.52,2.42
				c-1.21,0.52-2.88,0.89-4.89,0.89c-4.54,0-7.22-2.79-7.22-7.08c0-3.88,2.36-7.54,6.85-7.54c4.54,0,6.04,3.74,6.04,6.82
				c0,0.66-0.06,1.18-0.11,1.5H126.98z M133.14,235.23c0.03-1.29-0.55-3.42-2.9-3.42c-2.19,0-3.11,1.98-3.25,3.42H133.14z"/>
			<path class="st1" d="M139.32,233.88c0-1.61-0.06-2.96-0.11-4.17h3.08l0.17,2.1h0.09c0.63-1.09,2.16-2.42,4.49-2.42
				c2.44,0,4.98,1.58,4.98,6.01v8.31h-3.54v-7.91c0-2.01-0.75-3.54-2.68-3.54c-1.41,0-2.39,1.01-2.76,2.07
				c-0.11,0.29-0.17,0.72-0.17,1.12v8.25h-3.54V233.88z"/>
			<path class="st1" d="M159.68,226.12v3.6h3.37v2.65h-3.37v6.19c0,1.72,0.46,2.59,1.81,2.59c0.63,0,0.98-0.03,1.38-0.14l0.06,2.67
				c-0.52,0.2-1.47,0.37-2.56,0.37c-1.32,0-2.39-0.43-3.05-1.15c-0.78-0.81-1.12-2.1-1.12-3.94v-6.59h-1.98v-2.65h1.98v-2.62
				L159.68,226.12z"/>
			<path class="st1" d="M185.71,243.17c-0.83,0.4-2.68,0.86-5.03,0.86c-6.16,0-9.89-3.86-9.89-9.78c0-6.39,4.46-10.24,10.38-10.24
				c2.33,0,3.97,0.49,4.69,0.86l-0.75,2.82c-0.92-0.4-2.21-0.75-3.8-0.75c-3.94,0-6.79,2.47-6.79,7.13c0,4.29,2.47,6.99,6.76,6.99
				c1.41,0,2.91-0.29,3.85-0.69L185.71,243.17z"/>
			<path class="st1" d="M188.51,223.3h3.54v8.31h0.06c0.43-0.66,1.04-1.21,1.75-1.58c0.72-0.4,1.55-0.63,2.44-0.63
				c2.39,0,4.89,1.58,4.89,6.07v8.25h-3.54v-7.88c0-2.01-0.75-3.57-2.7-3.57c-1.38,0-2.36,0.92-2.76,1.99
				c-0.11,0.32-0.14,0.69-0.14,1.06v8.4h-3.54V223.3z"/>
			<path class="st1" d="M215.83,240.35c0,1.27,0.06,2.5,0.23,3.36h-3.19l-0.26-1.55h-0.09c-0.83,1.09-2.3,1.87-4.14,1.87
				c-2.82,0-4.4-2.04-4.4-4.17c0-3.51,3.14-5.32,8.31-5.29v-0.23c0-0.92-0.37-2.44-2.85-2.44c-1.38,0-2.82,0.43-3.77,1.03l-0.69-2.3
				c1.04-0.63,2.85-1.24,5.06-1.24c4.49,0,5.78,2.85,5.78,5.92V240.35z M212.38,236.87c-2.5-0.03-4.89,0.49-4.89,2.62
				c0,1.38,0.89,2.01,2.01,2.01c1.44,0,2.44-0.92,2.79-1.93c0.09-0.26,0.09-0.52,0.09-0.78V236.87z"/>
			<path class="st1" d="M219.57,234.37c0-1.84-0.06-3.34-0.11-4.66h3.11l0.17,2.16h0.06c1.04-1.58,2.67-2.47,4.8-2.47
				c3.22,0,5.9,2.76,5.9,7.13c0,5.06-3.19,7.51-6.39,7.51c-1.75,0-3.22-0.75-3.94-1.87h-0.06v7.25h-3.54V234.37z M223.11,237.85
				c0,0.35,0.03,0.66,0.09,0.98c0.37,1.44,1.61,2.47,3.14,2.47c2.24,0,3.57-1.87,3.57-4.63c0-2.47-1.21-4.49-3.48-4.49
				c-1.47,0-2.82,1.06-3.19,2.62c-0.06,0.29-0.11,0.6-0.11,0.89V237.85z"/>
			<path class="st1" d="M240.45,226.12v3.6h3.37v2.65h-3.37v6.19c0,1.72,0.46,2.59,1.81,2.59c0.63,0,0.98-0.03,1.38-0.14l0.06,2.67
				c-0.52,0.2-1.47,0.37-2.56,0.37c-1.32,0-2.39-0.43-3.05-1.15c-0.78-0.81-1.12-2.1-1.12-3.94v-6.59h-1.98v-2.65h1.98v-2.62
				L240.45,226.12z"/>
			<path class="st1" d="M248.82,237.71c0.09,2.53,2.04,3.62,4.31,3.62c1.64,0,2.79-0.26,3.88-0.63l0.52,2.42
				c-1.21,0.52-2.88,0.89-4.89,0.89c-4.54,0-7.22-2.79-7.22-7.08c0-3.88,2.36-7.54,6.85-7.54c4.54,0,6.04,3.74,6.04,6.82
				c0,0.66-0.06,1.18-0.11,1.5H248.82z M254.98,235.23c0.03-1.29-0.55-3.42-2.9-3.42c-2.19,0-3.11,1.98-3.25,3.42H254.98z"/>
			<path class="st1" d="M261.16,234.23c0-1.9-0.03-3.28-0.11-4.52h3.05l0.14,2.65h0.09c0.69-1.96,2.33-2.96,3.85-2.96
				c0.35,0,0.55,0.03,0.83,0.09v3.31c-0.32-0.06-0.63-0.09-1.06-0.09c-1.67,0-2.85,1.06-3.16,2.67c-0.06,0.32-0.09,0.69-0.09,1.06
				v7.28h-3.54V234.23z"/>
		</g>
	</g>
	<g>
		<polygon class="st1" points="295.37,258.21 353.58,200 294.2,140.62 264.75,140.62 325.36,201.23 268.38,258.21 		"/>
		<polygon class="st1" points="218.3,94.17 252.99,128.86 282.44,128.86 219.53,65.94 144.86,140.62 171.85,140.62 		"/>
		<polygon class="st1" points="256.62,269.97 220.76,305.83 173.13,258.21 143.68,258.21 219.53,334.06 283.61,269.97 		"/>
	</g>
</g>
</svg>
