<svg xmlns="http://www.w3.org/2000/svg" viewBox="0 0 776 815"><defs><style>.cls-1{fill:#ddb612;}</style></defs><g id="Camada_5" data-name="Camada 5"><path class="cls-1" d="M376.79,639.59c-45-27.81-83.69-61.85-115.2-101.21a430.78,430.78,0,0,1-61.94-105.12c-27.24-66.07-29.88-119.15-30.09-125L169.11,296l221.67-102L611.32,296l-.42,12.26c-.2,5.78-2.72,58.32-29.75,124.28A430.69,430.69,0,0,1,519.23,538c-31.58,39.57-70.44,73.77-115.52,101.66l-13.39,8.2Z"/><path d="M505.32,228.15h0l-.22-.07Z"/><rect class="cls-1" x="239.16" y="623.09" width="31.94" height="31.94" transform="translate(-420.78 510.09) rotate(-57.43)"/><rect class="cls-1" x="263.17" y="586.82" width="31.94" height="31.94" transform="translate(-379.13 513.59) rotate(-57.43)"/><path class="cls-1" d="M573.83,125.84l-10.9,16.27a14.27,14.27,0,0,1-2.79.28,13.93,13.93,0,0,1-13.93-13.93,13.72,13.72,0,0,1,.68-4.29l3.89-6v0a13.94,13.94,0,0,1,23,7.71Z"/><path d="M592.41,307.61C592.08,317.29,583.23,506.87,394,624l-3.65,2.23-3.86-2.37c-188.42-116.56-198-305-198.43-316.21l202.72-93.32Z"/><polygon class="cls-1" points="405.94 536.33 438 467.27 440.21 365.8 419.92 305.98 402.24 277.35 366.36 286.58 344.27 362.44 340.57 425.34 346.15 464.28 366.83 525.85 390.14 540.95 405.94 536.33"/><polygon class="cls-1" points="300.27 506.34 319.86 516.36 223.55 666.48 204.62 654.3 300.27 506.34"/><path class="cls-1" d="M524.91,418.72c.65-8.18.65-10.65.09-16.57-3.94-70.66-62.42-127-133.92-127.5h-1C315.6,274.64,255,335.25,255,409.76S315.6,544.87,390.1,544.87h1C462.13,544.35,520.31,488.74,524.91,418.72ZM391.13,532.92h-.66c-10.64-.14-21.54-12.52-30-34a193.6,193.6,0,0,1-9.58-34.62,332.21,332.21,0,0,0,79.38.14,193.09,193.09,0,0,1-9.55,34.48C412.45,520.2,401.67,532.55,391.13,532.92Zm.06-78.13A311.47,311.47,0,0,1,349,452a319.67,319.67,0,0,1-.14-83.37,319.49,319.49,0,0,1,83.65-.14,311.23,311.23,0,0,1,2.68,41.28,309.92,309.92,0,0,1-2.82,42.37A310.92,310.92,0,0,1,391.19,454.79Zm29.58-134.18a193.58,193.58,0,0,1,9.76,35.59,330.81,330.81,0,0,0-79.79.15,194.81,194.81,0,0,1,9.78-35.74c8.41-21.51,19.31-33.89,30-34l.66,0C401.67,287,412.45,299.31,420.77,320.61Zm24,49.8a197.27,197.27,0,0,1,34.3,9.28,164.59,164.59,0,0,1-.22,61.3,197.8,197.8,0,0,1-34.22,9.22,331.57,331.57,0,0,0,.14-79.8ZM443,358a212,212,0,0,0-11.06-41.74,108,108,0,0,0-12-23c25.67,11.89,46.22,38.67,55.88,72.63A224.79,224.79,0,0,0,443,358Zm-81.06-65.45a106.6,106.6,0,0,0-12.49,23.71,212.23,212.23,0,0,0-11.09,41.93,220.07,220.07,0,0,0-34.12,8.51C314,331.66,335.27,304.14,361.89,292.55ZM298.4,409.76a164.08,164.08,0,0,1,2.6-29.17l1-.42a194,194,0,0,1,34.49-9.55,330.83,330.83,0,0,0,.14,79.38A192.65,192.65,0,0,1,302,440.42l-.82-.33A163,163,0,0,1,298.4,409.76ZM288.13,434C275.19,426.72,268,418.43,268,410.3s7.12-16.36,20-23.56a176.13,176.13,0,0,0,.16,47.21Zm50.38,28.49a210.85,210.85,0,0,0,10.89,40.81A106.38,106.38,0,0,0,361.89,527c-26.31-11.45-47.45-38.48-57.36-73A221.22,221.22,0,0,0,338.51,462.44Zm81.4,63.81a108,108,0,0,0,12-23,210,210,0,0,0,10.86-40.62,224.58,224.58,0,0,0,32.7-7.81C465.65,488.21,445.28,514.5,419.91,526.25Zm72.16-140.78c11.08,5.8,18.37,12.36,21.09,19q.12,2.63.12,5.28c0,2.17-.06,4.34-.17,6.49-2.78,6.63-10.11,13.18-21.22,19a175.79,175.79,0,0,0,.18-49.75ZM510.35,383a95.84,95.84,0,0,0-21-12c-5.91-25.71-17.56-48.22-33-65A123.55,123.55,0,0,1,510.35,383ZM323.81,306c-15.65,17-27.4,39.93-33.24,66.09a87.14,87.14,0,0,0-21.18,13.12A123.53,123.53,0,0,1,323.81,306ZM269.68,435.66a88.23,88.23,0,0,0,21.17,13c5.92,25.66,17.55,48.13,33,64.88A123.5,123.5,0,0,1,269.68,435.66ZM456.4,513.53c15.19-16.52,26.72-38.6,32.72-63.81a97.19,97.19,0,0,0,20.94-11.91A123.61,123.61,0,0,1,456.4,513.53Z"/><path class="cls-1" d="M348.11,469.66l15.19-59a40.77,40.77,0,1,1,68.08-30.28,41,41,0,0,1-11.71,28.56l15.56,61.64Z"/><path d="M417.94,380.35a27.32,27.32,0,1,0-39.29,24.56L365.4,456.4l52.54.54-13.4-53.08A27.31,27.31,0,0,0,417.94,380.35Z"/><path d="M642.72,337.78s-76.46,25.89-106.06-24.67-33.3-53-62.89-50.56l33.29-44.4,87.57,29.6Z"/><path class="cls-1" d="M704,227.08l-51.34,34.2c-24,16-29.66,49.33-11.43,71.63.48.59,1,1.17,1.48,1.74l.32.38a2.09,2.09,0,0,1-1.26,3.45l-4,.61A72.11,72.11,0,0,1,586,327.52a72.14,72.14,0,0,1-26.55-33.83l-1-2.51a91.91,91.91,0,0,0-17.61-28.92c-6-6.68-21.3-18.79-36.29-24.38-11.64-4.34-29.25-2.64-29.25-2.64h0l71.32-111.06c.43-.67,4.17-.8,6.4-.81a16.61,16.61,0,0,1,3.15.26,66.55,66.55,0,0,1,49.34,39.6q1.1,2.55,2,5.22l3,9.25a59,59,0,0,0,52.21,40.52l40.3,5A2.1,2.1,0,0,1,704,227.08Z"/><polygon class="cls-1" points="502.18 232.19 458.68 299.98 439.57 290.89 476.74 233.39 502.18 232.19"/></g></svg>