<svg xmlns="http://www.w3.org/2000/svg" viewBox="0 0 1255 430"><defs><style>.cls-1{fill:#ddb612;}</style></defs><g id="Camada_5" data-name="Camada 5"><path class="cls-1" d="M552.56,281v1.58H540.41V264.49h11.92v1.58H542.19v6.52H551v1.5h-8.84V281Z"/><path class="cls-1" d="M555.82,264.49l5.91,7.87,5.88-7.87h2l-6.92,9.17,6.72,8.92h-2L561.73,275,556,282.58h-2l6.72-8.92-6.93-9.17Z"/><path class="cls-1" d="M584.86,266.07h-6.45v16.51h-1.78V266.07h-6.45v-1.58h14.68Z"/><path class="cls-1" d="M587.55,282.58V264.49h7.64a4.59,4.59,0,0,1,2.14.49,5.54,5.54,0,0,1,1.7,1.31,6.39,6.39,0,0,1,1.12,1.83,5.65,5.65,0,0,1,.39,2.05,6.13,6.13,0,0,1-.49,2.45,5.34,5.34,0,0,1-1.4,1.93,4.65,4.65,0,0,1-2.13,1.05l4.43,7h-2l-4.25-6.68h-5.35v6.68Zm1.79-8.26h5.91a3,3,0,0,0,1.85-.58,3.9,3.9,0,0,0,1.23-1.54,4.87,4.87,0,0,0,.43-2,4.23,4.23,0,0,0-.5-2,4.29,4.29,0,0,0-1.32-1.51,3.19,3.19,0,0,0-1.85-.57h-5.75Z"/><path class="cls-1" d="M616.33,281v1.58H604.19V264.49h11.92v1.58H606v6.52h8.84v1.5H606V281Z"/><path class="cls-1" d="M635.72,282.58V267.85l-6.55,11.44h-1.12l-6.57-11.44v14.73H619.7V264.49h1.83l7.05,12.38,7.11-12.38h1.81v18.09Z"/><path class="cls-1" d="M654.18,281v1.58H642V264.49H654v1.58H643.82v6.52h8.83v1.5h-8.83V281Z"/><path class="cls-1" d="M674.61,267.88a4.79,4.79,0,0,0-.89-.78,5.93,5.93,0,0,0-1.15-.6,8,8,0,0,0-1.36-.4,7.65,7.65,0,0,0-1.54-.16,5.49,5.49,0,0,0-3.48.91,3,3,0,0,0-1.11,2.45,2.56,2.56,0,0,0,.52,1.68,3.63,3.63,0,0,0,1.65,1,28.91,28.91,0,0,0,2.85.79,19.79,19.79,0,0,1,3.34,1,5.08,5.08,0,0,1,2.16,1.51,4,4,0,0,1,.77,2.58,4.59,4.59,0,0,1-.49,2.16,4.3,4.3,0,0,1-1.35,1.53,6.25,6.25,0,0,1-2.06.9,10.78,10.78,0,0,1-2.62.29,12.39,12.39,0,0,1-2.69-.29,10.48,10.48,0,0,1-2.43-.87,9.54,9.54,0,0,1-2.14-1.46l.89-1.45a6.21,6.21,0,0,0,1.16.95,8.87,8.87,0,0,0,1.5.8,9,9,0,0,0,1.78.55,9.92,9.92,0,0,0,2,.19,6.2,6.2,0,0,0,3.37-.78,2.61,2.61,0,0,0,1.21-2.34,2.57,2.57,0,0,0-.61-1.8,4.46,4.46,0,0,0-1.83-1.1,27.25,27.25,0,0,0-3-.84,20,20,0,0,1-3.18-1,4.33,4.33,0,0,1-2-1.41,3.77,3.77,0,0,1-.65-2.33,4.67,4.67,0,0,1,.83-2.83,5.13,5.13,0,0,1,2.28-1.76,8.64,8.64,0,0,1,3.33-.6,9.82,9.82,0,0,1,2.23.25,7.75,7.75,0,0,1,1.91.7,7.91,7.91,0,0,1,1.64,1.14Z"/><path class="cls-1" d="M691.65,281v1.58H679.5V264.49h11.92v1.58H681.28v6.52h8.84v1.5h-8.84V281Z"/><path class="cls-1" d="M693.45,273.38a9.6,9.6,0,0,1,.58-3.25,9.45,9.45,0,0,1,1.67-2.9,8,8,0,0,1,6.34-2.87,7.49,7.49,0,0,1,4.14,1.11,6.82,6.82,0,0,1,2.53,2.84l-1.4.87a5.31,5.31,0,0,0-1.48-1.9,5.78,5.78,0,0,0-1.89-1,7,7,0,0,0-2-.3,6.18,6.18,0,0,0-2.88.65,6.41,6.41,0,0,0-2.1,1.73,7.73,7.73,0,0,0-1.29,2.42,8.72,8.72,0,0,0-.43,2.71,8.24,8.24,0,0,0,.51,2.88,7.74,7.74,0,0,0,1.42,2.43,6.78,6.78,0,0,0,2.16,1.68,5.78,5.78,0,0,0,2.68.63,6.52,6.52,0,0,0,2.09-.36,6.63,6.63,0,0,0,2-1.09,5.36,5.36,0,0,0,1.49-1.91l1.48.76a5.72,5.72,0,0,1-1.74,2.29,8.31,8.31,0,0,1-2.61,1.43,8.78,8.78,0,0,1-2.81.48,7.23,7.23,0,0,1-3.41-.8,8.72,8.72,0,0,1-2.69-2.14,9.58,9.58,0,0,1-1.74-3A9.75,9.75,0,0,1,693.45,273.38Z"/><path class="cls-1" d="M719.48,282.7a7.77,7.77,0,0,1-3.61-.76,6.18,6.18,0,0,1-2.35-2.05,9.26,9.26,0,0,1-1.26-2.92,14.37,14.37,0,0,1-.39-3.36v-9.12h1.76v9.12a12.65,12.65,0,0,0,.29,2.75,7.51,7.51,0,0,0,1,2.42,4.84,4.84,0,0,0,1.79,1.69,5.63,5.63,0,0,0,2.8.63,5.71,5.71,0,0,0,2.86-.65,4.93,4.93,0,0,0,1.79-1.72,7.75,7.75,0,0,0,.93-2.41,13.62,13.62,0,0,0,.28-2.71v-9.12h1.78v9.12a14.45,14.45,0,0,1-.41,3.46,8.23,8.23,0,0,1-1.31,2.91,6.44,6.44,0,0,1-2.36,2A7.6,7.6,0,0,1,719.48,282.7Z"/><path class="cls-1" d="M731.35,282.58V264.49H739a4.62,4.62,0,0,1,2.14.49,5.54,5.54,0,0,1,1.7,1.31,6.39,6.39,0,0,1,1.12,1.83,5.65,5.65,0,0,1,.39,2.05,6.13,6.13,0,0,1-.49,2.45,5.36,5.36,0,0,1-1.41,1.93,4.56,4.56,0,0,1-2.12,1.05l4.43,7h-2l-4.26-6.68h-5.34v6.68Zm1.79-8.26H739a3,3,0,0,0,1.86-.58,3.9,3.9,0,0,0,1.23-1.54,4.87,4.87,0,0,0,.43-2,4.23,4.23,0,0,0-.5-2,4.29,4.29,0,0,0-1.32-1.51,3.19,3.19,0,0,0-1.85-.57h-5.75Z"/><path class="cls-1" d="M748,282.58V264.49h1.79v18.09Z"/><path class="cls-1" d="M767.14,266.07h-6.45v16.51h-1.78V266.07h-6.44v-1.58h14.67Z"/><path class="cls-1" d="M769.94,264.49l5.91,9.73,6-9.73h1.93l-7,11.36v6.73H775V275.8l-7-11.31Z"/><path class="cls-1" d="M804.09,266.07h-6.44v16.51h-1.78V266.07h-6.45v-1.58h14.67Z"/><path class="cls-1" d="M810.66,264.49h1.51l7.51,18.09h-1.89l-2.25-5.66h-8.27L805,282.58H803.1Zm4.31,11-3.57-8.94-3.57,8.94Z"/><path class="cls-1" d="M832.59,267.88a4.49,4.49,0,0,0-.89-.78,5.93,5.93,0,0,0-1.15-.6,7.72,7.72,0,0,0-1.36-.4,7.58,7.58,0,0,0-1.54-.16,5.49,5.49,0,0,0-3.48.91,3,3,0,0,0-1.1,2.45,2.5,2.5,0,0,0,.52,1.68,3.59,3.59,0,0,0,1.64,1c.75.26,1.7.52,2.85.79a19.52,19.52,0,0,1,3.34,1,5.12,5.12,0,0,1,2.17,1.51,4.08,4.08,0,0,1,.76,2.58,4.59,4.59,0,0,1-.48,2.16,4.5,4.5,0,0,1-1.35,1.53,6.3,6.3,0,0,1-2.07.9,10.78,10.78,0,0,1-2.62.29,12.46,12.46,0,0,1-2.69-.29,10.65,10.65,0,0,1-2.43-.87,9.78,9.78,0,0,1-2.14-1.46l.89-1.45a6.21,6.21,0,0,0,1.16.95,8.87,8.87,0,0,0,1.5.8,9.11,9.11,0,0,0,1.79.55,9.75,9.75,0,0,0,2,.19,6.18,6.18,0,0,0,3.37-.78,2.61,2.61,0,0,0,1.21-2.34,2.57,2.57,0,0,0-.61-1.8,4.39,4.39,0,0,0-1.83-1.1,26.63,26.63,0,0,0-3-.84,20.63,20.63,0,0,1-3.18-1,4.39,4.39,0,0,1-2-1.41,3.83,3.83,0,0,1-.65-2.33,4.74,4.74,0,0,1,.83-2.83,5.13,5.13,0,0,1,2.28-1.76,8.69,8.69,0,0,1,3.34-.6,9.89,9.89,0,0,1,2.23.25,8.06,8.06,0,0,1,1.91.7,8.18,8.18,0,0,1,1.64,1.14Z"/><path class="cls-1" d="M837.48,282.58V264.49h1.78V275l10-10.53h2l-7.38,7.95,7.77,10.16h-2l-6.9-9.08L839.26,277v5.57Z"/><path class="cls-1" d="M860.05,282.58V264.49h11.87v1.58H861.83v6.65h8.51v1.48h-8.51v8.38Z"/><path class="cls-1" d="M882,282.7a7.75,7.75,0,0,1-3.47-.76,8.32,8.32,0,0,1-2.67-2.08,9.74,9.74,0,0,1-1.71-9.78,9.69,9.69,0,0,1,1.8-2.93,8.73,8.73,0,0,1,2.71-2,7.91,7.91,0,0,1,6.83,0,8.57,8.57,0,0,1,2.66,2.12,10.15,10.15,0,0,1,1.72,3,9.62,9.62,0,0,1,.61,3.34,9.35,9.35,0,0,1-.64,3.45,9.51,9.51,0,0,1-1.78,2.93,8.47,8.47,0,0,1-2.7,2A7.65,7.65,0,0,1,882,282.7Zm-6.7-9.17a8.47,8.47,0,0,0,.48,2.84,7.51,7.51,0,0,0,1.38,2.42,6.52,6.52,0,0,0,2.12,1.68,6.25,6.25,0,0,0,5.51,0,6.78,6.78,0,0,0,2.11-1.73,7.84,7.84,0,0,0,1.34-2.44,8.61,8.61,0,0,0,.45-2.75,8.35,8.35,0,0,0-.48-2.82,7.57,7.57,0,0,0-1.39-2.42,6.47,6.47,0,0,0-2.12-1.68A6,6,0,0,0,882,266a6,6,0,0,0-2.77.63,6.74,6.74,0,0,0-2.11,1.72,7.82,7.82,0,0,0-1.35,2.43A8.41,8.41,0,0,0,875.28,273.53Z"/><path class="cls-1" d="M893.82,282.58V264.49h7.64a4.65,4.65,0,0,1,2.14.49,5.38,5.38,0,0,1,1.69,1.31,6,6,0,0,1,1.12,1.83,5.46,5.46,0,0,1,.4,2.05,6.13,6.13,0,0,1-.5,2.45,5.34,5.34,0,0,1-1.4,1.93,4.56,4.56,0,0,1-2.12,1.05l4.43,7h-2L901,275.9H895.6v6.68Zm1.78-8.26h5.91a3,3,0,0,0,1.86-.58,3.88,3.88,0,0,0,1.22-1.54,4.88,4.88,0,0,0,.44-2,4.23,4.23,0,0,0-.5-2,4.29,4.29,0,0,0-1.32-1.51,3.21,3.21,0,0,0-1.85-.57H895.6Z"/><path class="cls-1" d="M909.25,273.38a9.6,9.6,0,0,1,.58-3.25,9.45,9.45,0,0,1,1.67-2.9,8,8,0,0,1,6.34-2.87,7.49,7.49,0,0,1,4.14,1.11,6.82,6.82,0,0,1,2.53,2.84l-1.4.87a5.31,5.31,0,0,0-1.48-1.9,5.78,5.78,0,0,0-1.89-1,7,7,0,0,0-2-.3,6.18,6.18,0,0,0-2.88.65,6.41,6.41,0,0,0-2.1,1.73,7.73,7.73,0,0,0-1.29,2.42,8.72,8.72,0,0,0-.43,2.71,8.24,8.24,0,0,0,.51,2.88,7.74,7.74,0,0,0,1.42,2.43,6.85,6.85,0,0,0,2.15,1.68,5.85,5.85,0,0,0,2.69.63,6.52,6.52,0,0,0,2.09-.36,6.63,6.63,0,0,0,2-1.09,5.36,5.36,0,0,0,1.49-1.91l1.48.76a5.72,5.72,0,0,1-1.74,2.29,8.31,8.31,0,0,1-2.61,1.43,8.78,8.78,0,0,1-2.81.48,7.23,7.23,0,0,1-3.41-.8,8.72,8.72,0,0,1-2.69-2.14,9.58,9.58,0,0,1-1.74-3A9.75,9.75,0,0,1,909.25,273.38Z"/><path class="cls-1" d="M940.07,281v1.58H927.92V264.49h11.92v1.58H929.71v6.52h8.83v1.5h-8.83V281Z"/><polygon class="cls-1" points="635.4 189.59 598.38 189.59 586.71 201.7 575.03 189.59 537.98 189.59 568.24 218.36 537.98 247.13 575.04 247.13 586.71 235 598.38 247.13 635.4 247.13 605.14 218.36 635.4 189.59"/><path class="cls-1" d="M691.1,201.37c20.84,1.06,50.11,2.5,50.06,21.17,0,21.29-24.45,26.33-50.67,26.33s-47.89-3.21-50.67-26.33h30.5c3.34,5.77,11.06,7.26,20.17,7.26s20.17-1.49,20.17-7.26c0-3.27-9.06-3.76-20.78-4.32-20.83-1.05-50.11-2.49-50.06-21.11,0-21.29,24.45-26.38,50.67-26.38,26.17.16,47.89,3.1,50.67,26.38h-30.5c-3.34-5.88-11.06-7.26-20.17-7.26s-20.17,1.33-20.17,7.26C670.32,200.38,679.38,200.82,691.1,201.37Z"/><path class="cls-1" d="M776.66,247.15V196.27H742.05v-23.6h98.33v23.6H805.77v50.88Z"/><path class="cls-1" d="M850.11,172.67h91.06v23.6H879.22v9.09h54.67v21.78H879.22v20H850.11Z"/><path class="cls-1" d="M400.75,319.25a188.27,188.27,0,0,1-48.21-42.36,180.28,180.28,0,0,1-25.93-44c-11.4-27.66-12.5-49.87-12.59-52.31l-.19-5.16,92.77-42.71,92.3,42.72-.17,5.13c-.08,2.42-1.14,24.41-12.45,52a180.79,180.79,0,0,1-25.91,44.16A188.45,188.45,0,0,1,412,319.29l-5.61,3.43Z"/><path d="M454.54,147.05h0l-.09,0Z"/><rect class="cls-1" x="343.15" y="312.34" width="13.37" height="13.37" transform="translate(-107.34 442.14) rotate(-57.43)"/><rect class="cls-1" x="353.2" y="297.16" width="13.37" height="13.37" transform="translate(-89.9 443.6) rotate(-57.43)"/><path class="cls-1" d="M483.22,104.23,478.65,111a5.57,5.57,0,0,1-1.16.12,5.83,5.83,0,0,1-5.55-7.62l1.63-2.52h0a5.84,5.84,0,0,1,9.65,3.22Z"/><path d="M491,180.31c-.14,4.05-3.84,83.39-83.05,132.4l-1.52.93-1.62-1C326,263.87,321.93,185,321.76,180.31l84.84-39.06Z"/><polygon class="cls-1" points="412.95 276.03 426.37 247.13 427.3 204.66 418.8 179.63 411.4 167.64 396.39 171.51 387.14 203.26 385.59 229.58 387.93 245.88 396.58 271.64 406.34 277.96 412.95 276.03"/><polygon class="cls-1" points="368.73 263.48 376.92 267.68 336.62 330.5 328.69 325.41 368.73 263.48"/><path class="cls-1" d="M462.74,226.81a32.22,32.22,0,0,0,0-6.94,56.61,56.61,0,0,0-56-53.35h-.41a56.55,56.55,0,0,0,0,113.1h.41A56.61,56.61,0,0,0,462.74,226.81Zm-56,47.79h-.27c-4.46-.06-9-5.24-12.54-14.24a81.9,81.9,0,0,1-4-14.49,140,140,0,0,0,33.23.06,82.06,82.06,0,0,1-4,14.43C415.67,269.28,411.16,274.45,406.75,274.6Zm0-32.69a130.26,130.26,0,0,1-17.68-1.17,134.15,134.15,0,0,1-.06-34.9,133.83,133.83,0,0,1,35-.06,133.83,133.83,0,0,1-.06,35A130.5,130.5,0,0,1,406.78,241.91Zm12.38-56.16a81.83,81.83,0,0,1,4.08,14.9,138.52,138.52,0,0,0-33.39.06,81.47,81.47,0,0,1,4.09-15c3.52-9,8.08-14.18,12.54-14.24h.27C411.16,171.67,415.67,176.84,419.16,185.75Zm10,20.84a82,82,0,0,1,14.35,3.89,68.88,68.88,0,0,1-.09,25.65A82,82,0,0,1,429.13,240a138.6,138.6,0,0,0,.06-33.4Zm-.75-5.19a88.77,88.77,0,0,0-4.63-17.47,44.88,44.88,0,0,0-5-9.62c10.74,5,19.34,16.18,23.39,30.39A94.56,94.56,0,0,0,428.44,201.4ZM394.52,174a44.06,44.06,0,0,0-5.23,9.92,88,88,0,0,0-4.64,17.55A92.68,92.68,0,0,0,370.36,205C374.45,190.37,383.38,178.86,394.52,174Zm-26.58,49.05A68.46,68.46,0,0,1,369,210.85l.44-.17a80.37,80.37,0,0,1,14.43-4A138.48,138.48,0,0,0,384,239.9a79.77,79.77,0,0,1-14.49-4l-.35-.13A68.31,68.31,0,0,1,367.94,223.06Zm-4.3,10.12c-5.41-3-8.41-6.49-8.41-9.89s3-6.85,8.35-9.87a74.32,74.32,0,0,0,.06,19.76Zm21.09,11.93a87.79,87.79,0,0,0,4.56,17.08,44.06,44.06,0,0,0,5.23,9.92c-11-4.79-19.86-16.1-24-30.53A93.24,93.24,0,0,0,384.73,245.11Zm34.07,26.7a44.88,44.88,0,0,0,5-9.62,87.86,87.86,0,0,0,4.55-17A95.26,95.26,0,0,0,442,241.92C437.94,255.89,429.42,266.9,418.8,271.81ZM449,212.9c4.64,2.42,7.68,5.17,8.82,7.95,0,.73.05,1.47.05,2.21,0,.91,0,1.82-.07,2.71-1.16,2.78-4.23,5.52-8.88,7.95A73.65,73.65,0,0,0,449,212.9Zm7.65-1a40.34,40.34,0,0,0-8.77-5,60.06,60.06,0,0,0-13.81-27.21A51.69,51.69,0,0,1,456.65,211.87Zm-78.07-32.24a60.18,60.18,0,0,0-13.91,27.66,36.27,36.27,0,0,0-8.87,5.49A51.71,51.71,0,0,1,378.58,179.63ZM355.92,233.9a37,37,0,0,0,8.86,5.44,60,60,0,0,0,13.8,27.15A51.69,51.69,0,0,1,355.92,233.9Zm78.15,32.59a59.91,59.91,0,0,0,13.69-26.71,40.46,40.46,0,0,0,8.76-5A51.7,51.7,0,0,1,434.07,266.49Z"/><path class="cls-1" d="M388.75,248.13l6.35-24.7a17.08,17.08,0,1,1,23.6-.73l6.51,25.8Z"/><path d="M418,210.75A11.44,11.44,0,1,0,401.53,221L396,242.58l22,.23-5.61-22.22A11.42,11.42,0,0,0,418,210.75Z"/><path d="M512.05,192.93s-32,10.84-44.39-10.32-13.94-22.19-26.32-21.16l13.93-18.58,36.65,12.39Z"/><path class="cls-1" d="M537.68,146.6l-21.49,14.32c-10,6.69-12.41,20.64-4.78,30,.2.25.4.49.61.73l.14.15a.88.88,0,0,1-.53,1.45l-1.65.25a30.17,30.17,0,0,1-21.67-4.84,30.28,30.28,0,0,1-11.11-14.16l-.4-1a38.59,38.59,0,0,0-7.37-12.1,44.75,44.75,0,0,0-15.19-10.2C449.37,149.31,442,150,442,150h0l29.85-46.48c.18-.28,1.74-.34,2.68-.34a6.38,6.38,0,0,1,1.31.11,27.85,27.85,0,0,1,20.66,16.57c.3.71.57,1.44.82,2.18l1.26,3.88a24.7,24.7,0,0,0,21.85,16.95L537.3,145A.87.87,0,0,1,537.68,146.6Z"/><polygon class="cls-1" points="453.23 148.74 435.02 177.11 427.02 173.31 442.58 149.25 453.23 148.74"/></g></svg>